<svg version="1.1" id="Layer_1" xmlns="http://www.w3.org/2000/svg" xmlns:xlink="http://www.w3.org/1999/xlink" x="0px" y="0px"
	 width="100%" viewBox="0 0 900 900" enable-background="new 0 0 900 900" xml:space="preserve">
<path fill="#0B66C3" opacity="1.000000" stroke="none" 
	d="
M411.000000,901.000000 
	C274.000000,901.000000 137.500000,901.000000 1.000000,901.000000 
	C1.000000,601.000000 1.000000,301.000000 1.000000,1.000000 
	C301.000000,1.000000 601.000000,1.000000 901.000000,1.000000 
	C901.000000,301.000000 901.000000,601.000000 901.000000,901.000000 
	C737.833313,901.000000 574.666687,901.000000 411.000000,901.000000 
M663.486450,396.884613 
	C663.211487,396.681946 662.936462,396.479279 662.752441,396.238129 
	C662.752441,396.238129 662.720947,396.331726 662.576721,395.721558 
	C661.964355,395.201752 661.351990,394.681946 660.846985,394.161621 
	C660.846985,394.161621 660.837524,394.268555 660.602417,393.767334 
	C660.312012,393.548645 660.021545,393.329926 659.323914,392.974487 
	C659.065430,392.806000 658.920166,392.568268 658.627686,391.772491 
	C658.324646,391.568573 658.021545,391.364655 657.807861,391.153992 
	C657.807861,391.153992 657.803650,391.243469 657.713074,390.596924 
	C657.061096,390.133057 656.409119,389.669189 655.890503,389.121155 
	C655.890503,389.121155 655.792175,389.244446 655.718140,388.592041 
	C654.869446,388.044647 654.020752,387.497253 652.682495,386.808167 
	C652.454163,386.561615 652.225830,386.315063 651.694763,385.628937 
	C651.401184,385.433350 651.107666,385.237762 650.394470,384.911682 
	C650.103333,384.774200 649.936707,384.545868 649.758667,383.571533 
	C649.044861,383.192200 648.331116,382.812897 647.925781,382.121765 
	C647.925781,382.121765 647.639526,382.454163 647.423279,381.884369 
	C646.895508,381.628754 646.367737,381.373169 645.914673,381.098236 
	C645.914673,381.098236 645.928345,381.174225 645.643311,380.606171 
	C644.935669,380.245361 644.228088,379.884583 643.840820,378.993500 
	C643.730103,379.169220 643.619324,379.344940 643.412170,378.830566 
	C642.467896,378.383209 641.523560,377.935852 640.789673,377.231140 
	C640.789673,377.231140 640.617615,377.515564 640.395142,376.849213 
	C638.546082,375.944427 636.697021,375.039673 634.919922,374.080475 
	C634.919922,374.080475 634.903381,374.169159 634.569946,373.755737 
	C634.238831,373.647186 633.907776,373.538635 633.668335,373.417969 
	C633.668335,373.417969 633.656799,373.509735 633.381104,372.940338 
	C632.806641,372.778503 632.232117,372.616669 631.848328,372.219421 
	C631.848328,372.219421 631.695740,372.481140 631.309814,371.869690 
	C630.638123,371.670441 629.966492,371.471191 629.118652,371.339966 
	C629.118652,371.339966 629.032166,371.172150 628.588501,370.715942 
	C627.991455,370.546539 627.394470,370.377136 626.904419,370.121307 
	C626.904419,370.121307 626.840210,370.242920 626.565491,369.597809 
	C622.029419,368.073486 617.493347,366.549164 612.982300,364.990631 
	C612.982300,364.990631 612.990234,365.032104 612.580505,364.444214 
	C611.429016,363.827698 610.334839,362.841217 609.117126,362.652710 
	C598.656006,361.033447 588.212463,358.886749 577.682739,358.261505 
	C569.838989,357.795776 561.718750,358.601105 554.003967,360.201385 
	C544.215759,362.231720 534.708191,365.622253 525.103271,368.505035 
	C524.631470,368.646637 524.385803,369.541565 524.035950,370.016876 
	C524.035950,370.016876 524.090820,370.058411 523.403198,370.039856 
	C522.664429,370.492401 521.925598,370.944946 521.202759,371.290283 
	C521.202759,371.290283 521.306458,371.321594 520.563354,371.265533 
	C519.061584,372.210571 517.559875,373.155609 516.045898,374.023499 
	C516.045898,374.023499 516.106628,374.072601 515.497009,374.139526 
	C515.033752,374.513824 514.570557,374.888123 514.119812,375.168640 
	C514.119812,375.168640 514.211914,375.190125 513.479980,375.126678 
	C512.433533,375.902222 511.387085,376.677765 510.170715,377.215637 
	C510.170715,377.215637 510.376892,377.422668 509.681915,377.339874 
	C508.907532,378.045868 508.133148,378.751831 507.340912,379.376068 
	C507.340912,379.376068 507.424194,379.383881 506.801025,379.458527 
	C506.209320,380.008026 505.617615,380.557526 505.042267,381.038788 
	C505.042267,381.038788 505.107391,381.064850 504.415833,381.118439 
	C503.481781,381.941345 502.547699,382.764221 501.578217,383.671783 
	C501.578217,383.671783 501.486481,383.675018 501.049896,383.734833 
	C500.758911,383.900665 500.635223,384.149658 500.646118,384.659851 
	C500.646118,384.659851 500.465302,384.668182 499.973633,384.707794 
	C499.638580,384.839233 499.432953,385.080841 499.144501,385.090088 
	C499.144501,385.090088 499.384094,385.414185 498.725739,385.391357 
	C498.183563,385.977814 497.641388,386.564301 497.071625,387.067902 
	C497.071625,387.067902 497.148651,387.109070 496.575195,387.210876 
	C496.287415,387.661987 495.999634,388.113098 495.669159,388.777008 
	C495.669159,388.777008 495.452362,388.787628 495.021545,388.800568 
	C494.722107,388.937103 494.582672,389.169678 494.579132,389.579224 
	C494.579132,389.579224 494.495575,389.591522 494.028442,389.689362 
	C493.724121,389.871094 493.579498,390.139069 493.564453,390.583984 
	C493.564453,390.583984 493.469025,390.589539 492.964813,390.654755 
	C492.746094,390.899811 492.527374,391.144867 492.301392,391.307892 
	C492.301392,391.307892 492.382843,391.319794 491.882965,391.511017 
	C491.690979,391.802704 491.498962,392.094421 491.295563,392.296204 
	C491.295563,392.296204 491.385895,392.303406 490.890747,392.513550 
	C490.708099,392.813385 490.525421,393.113220 490.331879,393.330994 
	C490.331879,393.330994 490.414093,393.341064 489.907501,393.523132 
	C489.708771,393.811951 489.510040,394.100769 489.301056,394.297607 
	C489.301056,394.297607 489.393250,394.306244 488.902527,394.519958 
	C488.727325,394.821167 488.552124,395.122406 488.312286,395.307892 
	C488.312286,395.307892 488.429138,395.370453 487.938324,395.555695 
	C487.770233,395.851196 487.602142,396.146698 487.331451,396.296112 
	C487.331451,396.296112 487.480469,396.394318 486.911499,396.580536 
	C486.628357,397.078827 486.345215,397.577087 486.000854,398.023895 
	C486.000854,398.023895 486.077393,398.046753 485.649231,398.336731 
	C485.467163,398.626068 485.285095,398.915375 485.097595,399.091858 
	C485.097595,399.091858 485.210571,399.092407 484.747437,399.361633 
	C484.561554,399.659912 484.375641,399.958191 484.179718,400.180389 
	C484.179718,400.180389 484.256439,400.181702 483.788788,400.418182 
	C483.593719,400.701843 483.398621,400.985535 483.198547,401.190491 
	C483.198547,401.190491 483.277100,401.197815 482.651764,401.415833 
	C482.128326,402.319000 481.604889,403.222198 481.057678,404.057281 
	C481.057678,404.057281 481.127228,404.038055 480.569550,404.332825 
	C480.176208,405.028412 479.782867,405.724030 479.353363,406.320343 
	C479.353363,406.320343 479.450378,406.362305 478.742096,406.548126 
	C478.245148,407.569092 477.748199,408.590057 477.274017,409.871429 
	C477.274017,409.871429 477.053009,410.011017 476.330902,409.694305 
	C475.886810,407.863373 475.082275,406.037109 475.058716,404.200806 
	C474.931580,394.290131 475.068359,384.376007 474.934265,374.465515 
	C474.909576,372.639893 474.058258,370.825409 472.655396,368.948334 
	C471.105652,368.849365 469.555939,368.750397 467.726288,368.084290 
	C466.144012,368.273499 464.561737,368.462677 462.061401,368.836853 
	C437.381592,368.775177 412.701813,368.713501 387.685242,368.056549 
	C385.451416,368.253693 383.217560,368.450806 380.130463,368.832642 
	C378.096191,368.914246 376.061920,368.995850 373.465332,369.013763 
	C373.276398,369.015381 373.087433,369.017029 372.480682,369.725922 
	C372.320526,372.035980 372.021332,374.345978 372.020416,376.656097 
	C371.995392,439.589233 372.001434,502.522369 372.001007,565.455505 
	C372.000732,607.577393 371.972137,649.699402 372.076111,691.821045 
	C372.081238,693.897888 373.235413,695.971924 373.980621,698.018433 
	C373.980621,698.018433 374.008240,698.144775 374.350372,698.502319 
	C374.636414,698.699890 374.952454,698.781372 375.179718,698.874451 
	C375.179718,698.874451 375.055756,698.751770 375.668884,699.318359 
	C376.955872,699.547546 378.242584,699.975281 379.529846,699.976868 
	C410.451141,700.014160 441.372528,700.024109 472.293701,699.951660 
	C473.837128,699.948059 475.378723,699.157288 476.809784,698.857910 
	C476.809784,698.857910 476.689270,698.741760 477.220245,698.616760 
	C477.455780,698.349426 477.691315,698.082092 477.987732,697.851746 
	C477.987732,697.851746 477.962036,697.785278 478.502991,697.211426 
	C478.678009,695.739685 479.005676,694.268005 479.006073,692.796204 
	C479.022247,635.000732 479.016388,577.205322 478.968140,519.409851 
	C478.966370,517.281372 478.511932,515.153320 478.153839,512.204468 
	C478.806702,507.598236 479.216125,502.941895 480.152405,498.393982 
	C485.847260,470.731262 507.021851,451.355194 533.908997,449.394592 
	C553.796753,447.944397 570.647583,453.595184 580.761353,472.066498 
	C588.032898,485.346954 589.807983,500.057404 589.410645,515.733032 
	C589.260559,517.213440 588.979858,518.693848 588.979309,520.174316 
	C588.957520,577.976013 588.952026,635.777771 589.006409,693.579407 
	C589.008057,695.324280 589.670837,697.068481 590.653992,698.736389 
	C590.839844,698.636169 591.025635,698.536011 591.614624,698.545654 
	C591.614624,698.545654 591.936340,698.812439 592.596252,699.342163 
	C593.889038,699.563721 595.181519,699.977112 596.474609,699.978699 
	C627.085266,700.015320 657.695984,700.026123 688.306519,699.953674 
	C689.851074,699.950012 691.393799,699.157166 692.712952,698.605286 
	C692.712952,698.605286 692.833008,698.377380 693.272461,698.703735 
	C693.448975,698.750427 693.625427,698.797058 694.548828,698.618347 
	C695.013794,696.623718 695.882874,694.629578 695.885132,692.634460 
	C695.959106,627.332214 695.987976,562.029846 695.931458,496.727661 
	C695.912476,474.823517 692.743713,453.379028 685.540588,432.633453 
	C684.833984,430.598511 683.136902,428.907501 681.977966,427.049042 
	C681.977966,427.049042 681.923279,427.105804 681.962830,426.308136 
	C680.318298,423.179810 678.673767,420.051514 676.823730,416.790100 
	C676.823730,416.790100 676.858643,416.547760 676.676514,415.935699 
	C676.422180,415.597809 676.167786,415.259918 675.718994,414.817383 
	C675.718994,414.817383 675.748840,414.598633 675.821716,413.826447 
	C675.133911,412.934692 674.446045,412.042908 673.322693,410.940063 
	C673.142883,410.505615 672.963074,410.071167 672.593689,409.037231 
	C672.305054,408.740967 672.016357,408.444702 671.819397,408.151428 
	C671.819397,408.151428 671.805969,408.242157 671.640442,407.737762 
	C671.405762,407.475739 671.171021,407.213715 670.730652,406.836578 
	C670.730652,406.836578 670.739685,406.601013 670.758057,405.862610 
	C670.010254,405.042542 669.262390,404.222504 668.634766,403.307404 
	C668.634766,403.307404 668.570679,403.446655 668.434326,402.942749 
	C668.165344,402.737549 667.896423,402.532349 667.990784,402.019318 
	C667.990784,402.019318 667.634766,402.336060 667.636169,401.684509 
	C667.037781,401.155823 666.439392,400.627167 665.918945,400.095642 
	C665.918945,400.095642 665.881531,400.164062 665.797119,399.555023 
	C665.356445,399.181702 664.915833,398.808380 664.690002,398.256592 
	C664.690002,398.256592 664.514099,398.473511 664.407715,397.963135 
	C664.143188,397.754517 663.878723,397.545898 663.759277,397.224579 
	C663.759277,397.224579 663.658936,397.378448 663.486450,396.884613 
M208.808151,368.361816 
	C208.520447,368.441406 208.312424,368.615936 208.198685,369.085663 
	C208.198685,369.085663 208.001389,369.123474 207.286057,369.374573 
	C206.874161,371.572388 206.105667,373.769714 206.102707,375.968079 
	C206.034637,426.432892 206.049759,476.897827 206.049835,527.362732 
	C206.049927,581.824890 206.030380,636.287048 206.127747,690.749023 
	C206.131454,692.822388 207.266556,694.893799 208.112793,697.268860 
	C208.112793,697.268860 208.138870,697.653198 208.355103,697.827759 
	C208.518845,697.932678 208.698044,697.984009 208.976089,697.929138 
	C208.976089,697.929138 209.034637,698.008484 209.347916,698.710999 
	C210.877899,699.122559 212.407059,699.889587 213.937988,699.893127 
	C244.503418,699.963501 275.069183,699.977722 305.634338,699.864136 
	C307.410431,699.857544 309.182159,698.670532 311.455719,697.813599 
	C311.625305,697.747681 311.794861,697.681763 312.497101,697.082581 
	C312.679474,695.448425 313.021088,693.814270 313.021423,692.180054 
	C313.044556,586.420654 313.045471,480.661194 312.995178,374.901794 
	C312.994263,372.992126 312.352112,371.082794 311.961639,369.168396 
	C311.961639,369.168396 311.936676,369.127686 311.726349,368.583984 
	C311.472229,368.290436 311.218079,367.996918 310.225922,367.356628 
	C309.572083,367.242584 308.918365,367.029236 308.264435,367.028717 
	C276.600189,367.003540 244.935913,366.980469 213.271805,367.042664 
	C211.900894,367.045349 210.531570,367.851196 209.233536,368.266754 
	C209.233536,368.266754 209.233368,368.340576 208.808151,368.361816 
M319.483490,271.902161 
	C324.448090,228.341660 288.553345,197.617645 248.389908,205.127640 
	C203.149048,213.587036 187.989853,263.750366 209.917175,296.870422 
	C223.586136,317.516632 248.271545,327.235657 271.694885,322.145569 
	C298.069122,316.414246 314.596283,299.297363 319.483490,271.902161 
z"/>
<path fill="#FEFFFF" opacity="1.000000" stroke="none" 
	d="
M658.888245,392.261353 
	C658.920166,392.568268 659.065430,392.806000 659.615662,393.313354 
	C660.217468,393.857666 660.527466,394.063110 660.837524,394.268555 
	C660.837524,394.268555 660.846985,394.161621 660.888306,394.452393 
	C661.526672,395.272705 662.123840,395.802216 662.720947,396.331726 
	C662.720947,396.331726 662.752441,396.238129 662.788391,396.508911 
	C663.102539,396.979279 663.380737,397.178864 663.658936,397.378448 
	C663.658936,397.378448 663.759277,397.224579 663.750366,397.528992 
	C663.998962,398.046783 664.256531,398.260162 664.514099,398.473511 
	C664.514099,398.473511 664.690002,398.256592 664.687744,398.612915 
	C665.084167,399.367523 665.482849,399.765778 665.881531,400.164062 
	C665.881531,400.164062 665.918945,400.095642 665.934814,400.392090 
	C666.512085,401.237732 667.073425,401.786896 667.634766,402.336060 
	C667.634766,402.336060 667.990784,402.019318 667.883423,402.420166 
	C668.040955,403.029541 668.305847,403.238098 668.570679,403.446655 
	C668.570679,403.446655 668.634766,403.307404 668.671326,403.673096 
	C669.385132,404.892853 670.062378,405.746948 670.739685,406.601013 
	C670.739685,406.601013 670.730652,406.836578 670.857788,407.178040 
	C671.258545,407.760406 671.532288,408.001282 671.805969,408.242157 
	C671.805969,408.242157 671.819397,408.151428 671.861206,408.455078 
	C672.196472,409.051392 672.489868,409.344055 672.783325,409.636688 
	C672.963074,410.071167 673.142883,410.505615 673.609375,411.374420 
	C674.513672,412.738739 675.131226,413.668701 675.748840,414.598633 
	C675.748840,414.598633 675.718994,414.817383 675.842773,415.205994 
	C676.263916,415.912323 676.561279,416.230042 676.858643,416.547760 
	C676.858643,416.547760 676.823730,416.790100 676.982544,417.218445 
	C678.735352,420.799835 680.329285,423.952820 681.923279,427.105804 
	C681.923279,427.105804 681.977966,427.049042 681.970032,427.428101 
	C690.691284,449.029480 693.892273,471.266663 693.909058,494.043365 
	C693.955872,557.633118 693.924194,621.222900 693.910339,684.812683 
	C693.909424,689.137634 693.799744,693.462524 693.537842,697.792542 
	C693.033386,697.874634 692.866028,698.067871 692.833008,698.377380 
	C692.833008,698.377380 692.712952,698.605286 692.369141,698.568970 
	C662.635254,698.516296 633.245178,698.487366 603.855042,698.498474 
	C599.882080,698.499939 595.909241,698.702820 591.936340,698.812439 
	C591.936340,698.812439 591.614624,698.545654 591.306580,698.299683 
	C590.747253,697.888611 590.471619,697.796875 590.125244,697.325928 
	C590.071594,638.410645 590.066895,579.947998 590.046387,521.485352 
	C590.045654,519.327087 589.890930,517.168762 589.807983,515.010498 
	C589.807983,500.057404 588.032898,485.346954 580.761353,472.066498 
	C570.647583,453.595184 553.796753,447.944397 533.908997,449.394592 
	C507.021851,451.355194 485.847260,470.731262 480.152405,498.393982 
	C479.216125,502.941895 478.806702,507.598236 478.082336,513.067932 
	C477.994568,575.216003 477.978302,636.500671 477.962036,697.785278 
	C477.962036,697.785278 477.987732,697.851746 477.727386,697.960815 
	C477.207764,698.293884 476.948517,698.517822 476.689270,698.741760 
	C476.689270,698.741760 476.809784,698.857910 476.411682,698.695923 
	C454.517151,698.517212 433.020630,698.466736 411.524292,698.496643 
	C399.368011,698.513550 387.211914,698.662415 375.055756,698.751831 
	C375.055756,698.751770 375.179718,698.874451 375.069336,698.629578 
	C374.659393,698.236023 374.342499,698.156006 374.008240,698.144775 
	C374.008240,698.144775 373.980621,698.018433 373.935120,697.583313 
	C373.801086,694.754150 373.712555,692.360107 373.749207,689.514526 
	C373.896637,688.231445 373.938324,687.399841 373.938354,686.568298 
	C373.941010,584.549438 373.941956,482.530609 373.927185,380.511749 
	C373.926971,379.025818 373.728912,377.539917 373.716797,375.673340 
	C373.748535,374.516602 373.686676,373.740509 373.750061,372.590820 
	C373.926056,371.170593 373.976868,370.124054 374.027649,369.077454 
	C376.061920,368.995850 378.096191,368.914246 380.984924,368.857178 
	C383.900269,368.805115 385.961151,368.728485 388.022003,368.651855 
	C412.701813,368.713501 437.381592,368.775177 462.928925,368.860748 
	C465.199707,368.806915 466.602936,368.729187 468.006195,368.651428 
	C469.555939,368.750397 471.105652,368.849365 473.160065,369.374451 
	C473.664734,384.454346 473.664734,399.108185 473.664734,413.761993 
	C474.091980,413.856262 474.519257,413.950531 474.946503,414.044800 
	C475.648682,412.700195 476.350861,411.355621 477.053009,410.011017 
	C477.053009,410.011017 477.274017,409.871429 477.538391,409.553345 
	C478.351990,408.277588 478.901184,407.319946 479.450378,406.362305 
	C479.450378,406.362305 479.353363,406.320343 479.633911,406.211060 
	C480.318695,405.413849 480.722961,404.725952 481.127228,404.038055 
	C481.127228,404.038055 481.057678,404.057281 481.335175,403.926788 
	C482.167480,402.930115 482.722290,402.063965 483.277100,401.197815 
	C483.277100,401.197815 483.198547,401.190491 483.455811,401.138000 
	C483.894196,400.784271 484.075317,400.483002 484.256470,400.181702 
	C484.256439,400.181702 484.179718,400.180389 484.436737,400.109985 
	C484.866028,399.723877 485.038300,399.408142 485.210571,399.092407 
	C485.210571,399.092407 485.097595,399.091858 485.361938,399.052002 
	C485.776642,398.690338 485.927002,398.368561 486.077393,398.046753 
	C486.077393,398.046753 486.000854,398.023895 486.271484,397.900452 
	C486.854919,397.316071 487.167694,396.855194 487.480469,396.394318 
	C487.480469,396.394318 487.331451,396.296112 487.618683,396.265137 
	C488.080322,395.946259 488.254730,395.658356 488.429138,395.370453 
	C488.429138,395.370453 488.312286,395.307892 488.591736,395.261871 
	C489.045166,394.912628 489.219208,394.609436 489.393250,394.306244 
	C489.393250,394.306244 489.301056,394.297607 489.563843,394.258698 
	C490.022461,393.926880 490.218262,393.633972 490.414062,393.341064 
	C490.414093,393.341064 490.331879,393.330994 490.588989,393.271179 
	C491.026001,392.908722 491.205933,392.606079 491.385895,392.303406 
	C491.385895,392.303406 491.295563,392.296204 491.553467,392.247925 
	C492.001862,391.906372 492.192352,391.613098 492.382843,391.319794 
	C492.382843,391.319794 492.301392,391.307892 492.545227,391.293976 
	C493.104248,391.137054 493.330902,390.906891 493.469025,390.589539 
	C493.469025,390.589539 493.564453,390.583984 493.786072,390.452026 
	C494.266418,390.141541 494.429047,389.898682 494.495575,389.591522 
	C494.495575,389.591522 494.579132,389.579224 494.781921,389.488892 
	C495.229950,389.263336 495.385834,389.059692 495.452362,388.787628 
	C495.452362,388.787628 495.669159,388.777008 495.925140,388.545166 
	C496.503632,387.911926 496.826141,387.510498 497.148651,387.109070 
	C497.148651,387.109070 497.071625,387.067902 497.372894,387.037811 
	C498.244141,386.476562 498.814117,385.945374 499.384094,385.414185 
	C499.384094,385.414185 499.144501,385.090088 499.482239,385.212128 
	C500.123413,385.197754 500.338531,384.975769 500.465302,384.668182 
	C500.465302,384.668182 500.646118,384.659851 500.850098,384.496582 
	C501.289490,384.173828 501.433624,383.954407 501.486481,383.675018 
	C501.486481,383.675018 501.578217,383.671783 501.886414,383.513489 
	C503.165527,382.591736 504.136475,381.828308 505.107422,381.064880 
	C505.107391,381.064850 505.042267,381.038788 505.339478,381.031738 
	C506.232483,380.477753 506.828339,379.930817 507.424194,379.383881 
	C507.424194,379.383881 507.340912,379.376068 507.649292,379.328979 
	C508.764069,378.662170 509.570496,378.042419 510.376892,377.422668 
	C510.376892,377.422668 510.170715,377.215637 510.576355,377.257660 
	C512.058594,376.596497 513.135254,375.893311 514.211914,375.190125 
	C514.211914,375.190125 514.119812,375.168640 514.412964,375.159424 
	C515.172913,374.791016 515.639771,374.431793 516.106628,374.072571 
	C516.106628,374.072601 516.045898,374.023499 516.385803,374.010956 
	C518.252625,373.106140 519.779541,372.213867 521.306458,371.321594 
	C521.306458,371.321594 521.202759,371.290283 521.524048,371.301208 
	C522.593811,370.894226 523.342285,370.476318 524.090820,370.058411 
	C524.090820,370.058411 524.035950,370.016876 524.408325,370.018494 
	C542.231140,362.193878 560.541687,358.421387 579.590332,359.973083 
	C590.786743,360.885101 601.861023,363.295624 612.990234,365.032104 
	C612.990234,365.032104 612.982300,364.990631 613.257202,365.227722 
	C617.968201,367.057526 622.404175,368.650238 626.840210,370.242920 
	C626.840210,370.242920 626.904419,370.121307 627.030762,370.435211 
	C627.782104,370.890106 628.407104,371.031128 629.032166,371.172150 
	C629.032166,371.172150 629.118652,371.339966 629.438538,371.564697 
	C630.404175,372.020020 631.049988,372.250580 631.695740,372.481140 
	C631.695740,372.481140 631.848328,372.219421 631.933533,372.567383 
	C632.564758,373.113464 633.110779,373.311615 633.656799,373.509735 
	C633.656799,373.509735 633.668335,373.417969 633.773499,373.650085 
	C634.220215,373.977875 634.561829,374.073517 634.903381,374.169159 
	C634.903381,374.169159 634.919922,374.080475 635.077637,374.382599 
	C637.029480,375.628326 638.823547,376.571960 640.617615,377.515564 
	C640.617615,377.515564 640.789673,377.231140 640.847717,377.617126 
	C641.773376,378.508972 642.640930,379.014801 643.508484,379.520630 
	C643.619324,379.344940 643.730103,379.169220 643.852295,379.506958 
	C644.552002,380.405029 645.240173,380.789642 645.928345,381.174225 
	C645.928345,381.174225 645.914673,381.098236 646.014404,381.367523 
	C646.622620,381.909241 647.131104,382.181702 647.639526,382.454163 
	C647.639526,382.454163 647.925781,382.121765 647.921143,382.534668 
	C648.575806,383.373962 649.235168,383.800354 649.894531,384.226715 
	C649.936707,384.545868 650.103333,384.774200 650.703430,385.245789 
	C651.340759,385.742767 651.669067,385.905640 651.997437,386.068512 
	C652.225830,386.315063 652.454163,386.561615 653.083252,387.130249 
	C654.253418,388.049683 655.022827,388.647064 655.792175,389.244446 
	C655.792175,389.244446 655.890503,389.121155 655.921814,389.448303 
	C656.570007,390.264771 657.186829,390.754120 657.803650,391.243469 
	C657.803650,391.243469 657.807861,391.153992 657.873230,391.421021 
	C658.255127,391.879181 658.571716,392.070251 658.888245,392.261353 
z"/>
<path fill="#FEFFFF" opacity="1.000000" stroke="none" 
	d="
M311.964447,697.615845 
	C311.794861,697.681763 311.625305,697.747681 310.749268,697.836304 
	C276.373413,697.908813 242.704025,697.958679 209.034637,698.008484 
	C209.034637,698.008484 208.976089,697.929138 208.845810,697.832153 
	C208.537689,697.606262 208.345474,697.578918 208.138870,697.653198 
	C208.138870,697.653198 208.112793,697.268860 208.085220,696.663025 
	C208.067368,624.404114 208.088028,552.751038 208.082321,481.097992 
	C208.079346,443.773163 208.029861,406.448303 208.001389,369.123474 
	C208.001389,369.123474 208.198685,369.085663 208.400696,368.981079 
	C208.909409,368.811737 209.119644,368.633087 209.233368,368.340576 
	C209.233368,368.340576 209.233536,368.266754 209.408386,368.366882 
	C209.921906,368.530640 210.202316,368.430603 210.841507,368.348755 
	C242.345413,368.572144 273.432281,368.603241 304.519043,368.675262 
	C306.991943,368.681000 309.464142,368.970215 311.936676,369.127686 
	C311.936676,369.127686 311.961639,369.168396 311.950653,369.618591 
	C311.947937,479.251160 311.956207,588.433472 311.964447,697.615845 
z"/>
<path fill="#FDFEFF" opacity="1.000000" stroke="none" 
	d="
M319.420837,272.341858 
	C314.596283,299.297363 298.069122,316.414246 271.694885,322.145569 
	C248.271545,327.235657 223.586136,317.516632 209.917175,296.870422 
	C187.989853,263.750366 203.149048,213.587036 248.389908,205.127640 
	C288.553345,197.617645 324.448090,228.341660 319.420837,272.341858 
z"/>
<path fill="#2A6EB4" opacity="1.000000" stroke="none" 
	d="
M207.643723,369.249023 
	C208.029861,406.448303 208.079346,443.773163 208.082321,481.097992 
	C208.088028,552.751038 208.067368,624.404114 207.966034,696.511658 
	C207.266556,694.893799 206.131454,692.822388 206.127747,690.749023 
	C206.030380,636.287048 206.049927,581.824890 206.049835,527.362732 
	C206.049759,476.897827 206.034637,426.432892 206.102707,375.968079 
	C206.105667,373.769714 206.874161,371.572388 207.643723,369.249023 
z"/>
<path fill="#2A6DB1" opacity="1.000000" stroke="none" 
	d="
M693.740662,697.787476 
	C693.799744,693.462524 693.909424,689.137634 693.910339,684.812683 
	C693.924194,621.222900 693.955872,557.633118 693.909058,494.043365 
	C693.892273,471.266663 690.691284,449.029480 681.930847,427.431976 
	C683.136902,428.907501 684.833984,430.598511 685.540588,432.633453 
	C692.743713,453.379028 695.912476,474.823517 695.931458,496.727661 
	C695.987976,562.029846 695.959106,627.332214 695.885132,692.634460 
	C695.882874,694.629578 695.013794,696.623718 694.193787,698.465210 
	C693.806030,698.137268 693.773315,697.962341 693.740662,697.787476 
z"/>
<path fill="#105EB1" opacity="1.000000" stroke="none" 
	d="
M373.624023,689.966064 
	C373.712555,692.360107 373.801086,694.754150 373.872070,697.597717 
	C373.235413,695.971924 372.081238,693.897888 372.076111,691.821045 
	C371.972137,649.699402 372.000732,607.577393 372.001007,565.455505 
	C372.001434,502.522369 371.995392,439.589233 372.020416,376.656097 
	C372.021332,374.345978 372.320526,372.035980 372.700928,369.713623 
	C373.155731,370.789001 373.390289,371.876740 373.624817,372.964447 
	C373.686676,373.740509 373.748535,374.516602 373.532288,376.036163 
	C373.143066,378.267975 372.934906,379.756317 372.934692,381.244629 
	C372.919708,482.359467 372.917816,583.474304 372.950928,684.589172 
	C372.951538,686.381531 373.389923,688.173767 373.624023,689.966064 
z"/>
<path fill="#174C90" opacity="1.000000" stroke="none" 
	d="
M312.230774,697.349243 
	C311.956207,588.433472 311.947937,479.251160 311.974396,369.621063 
	C312.352112,371.082794 312.994263,372.992126 312.995178,374.901794 
	C313.045471,480.661194 313.044556,586.420654 313.021423,692.180054 
	C313.021088,693.814270 312.679474,695.448425 312.230774,697.349243 
z"/>
<path fill="#2A6EB4" opacity="1.000000" stroke="none" 
	d="
M209.191284,698.359741 
	C242.704025,697.958679 276.373413,697.908813 310.499329,697.945923 
	C309.182159,698.670532 307.410431,699.857544 305.634338,699.864136 
	C275.069183,699.977722 244.503418,699.963501 213.937988,699.893127 
	C212.407059,699.889587 210.877899,699.122559 209.191284,698.359741 
z"/>
<path fill="#174C90" opacity="1.000000" stroke="none" 
	d="
M478.232513,697.498352 
	C477.978302,636.500671 477.994568,575.216003 478.139648,513.478210 
	C478.511932,515.153320 478.966370,517.281372 478.968140,519.409851 
	C479.016388,577.205322 479.022247,635.000732 479.006073,692.796204 
	C479.005676,694.268005 478.678009,695.739685 478.232513,697.498352 
z"/>
<path fill="#174C90" opacity="1.000000" stroke="none" 
	d="
M589.609314,515.371765 
	C589.890930,517.168762 590.045654,519.327087 590.046387,521.485352 
	C590.066895,579.947998 590.071594,638.410645 590.055420,697.580322 
	C590.029724,698.462585 590.027527,698.637756 590.025391,698.812988 
	C589.670837,697.068481 589.008057,695.324280 589.006409,693.579407 
	C588.952026,635.777771 588.957520,577.976013 588.979309,520.174316 
	C588.979858,518.693848 589.260559,517.213440 589.609314,515.371765 
z"/>
<path fill="#2A6DB1" opacity="1.000000" stroke="none" 
	d="
M612.785400,364.738159 
	C601.861023,363.295624 590.786743,360.885101 579.590332,359.973083 
	C560.541687,358.421387 542.231140,362.193878 524.407715,370.052917 
	C524.385803,369.541565 524.631470,368.646637 525.103271,368.505035 
	C534.708191,365.622253 544.215759,362.231720 554.003967,360.201385 
	C561.718750,358.601105 569.838989,357.795776 577.682739,358.261505 
	C588.212463,358.886749 598.656006,361.033447 609.117126,362.652710 
	C610.334839,362.841217 611.429016,363.827698 612.785400,364.738159 
z"/>
<path fill="#105EB1" opacity="1.000000" stroke="none" 
	d="
M375.362305,699.035095 
	C387.211914,698.662415 399.368011,698.513550 411.524292,698.496643 
	C433.020630,698.466736 454.517151,698.517212 476.467346,698.633484 
	C475.378723,699.157288 473.837128,699.948059 472.293701,699.951660 
	C441.372528,700.024109 410.451141,700.014160 379.529846,699.976868 
	C378.242584,699.975281 376.955872,699.547546 375.362305,699.035095 
z"/>
<path fill="#105EB1" opacity="1.000000" stroke="none" 
	d="
M210.424454,368.166901 
	C210.202316,368.430603 209.921906,368.530640 209.372375,368.374939 
	C210.531570,367.851196 211.900894,367.045349 213.271805,367.042664 
	C244.935913,366.980469 276.600189,367.003540 308.264435,367.028717 
	C308.918365,367.029236 309.572083,367.242584 310.130188,367.576538 
	C288.282684,367.818237 266.530884,367.810516 244.779282,367.873962 
	C233.327484,367.907379 221.876053,368.065247 210.424454,368.166901 
z"/>
<path fill="#105EB1" opacity="1.000000" stroke="none" 
	d="
M592.266296,699.077271 
	C595.909241,698.702820 599.882080,698.499939 603.855042,698.498474 
	C633.245178,698.487366 662.635254,698.516296 692.481384,698.632202 
	C691.393799,699.157166 689.851074,699.950012 688.306519,699.953674 
	C657.695984,700.026123 627.085266,700.015320 596.474609,699.978699 
	C595.181519,699.977112 593.889038,699.563721 592.266296,699.077271 
z"/>
<path fill="#2A6EB4" opacity="1.000000" stroke="none" 
	d="
M210.841507,368.348755 
	C221.876053,368.065247 233.327484,367.907379 244.779282,367.873962 
	C266.530884,367.810516 288.282684,367.818237 310.499207,367.749878 
	C311.218079,367.996918 311.472229,368.290436 311.831512,368.855835 
	C309.464142,368.970215 306.991943,368.681000 304.519043,368.675262 
	C273.432281,368.603241 242.345413,368.572144 210.841507,368.348755 
z"/>
<path fill="#2A6DB1" opacity="1.000000" stroke="none" 
	d="
M476.691956,409.852661 
	C476.350861,411.355621 475.648682,412.700195 474.946503,414.044800 
	C474.519257,413.950531 474.091980,413.856262 473.664734,413.761993 
	C473.664734,399.108185 473.664734,384.454346 473.626648,369.403168 
	C474.058258,370.825409 474.909576,372.639893 474.934265,374.465515 
	C475.068359,384.376007 474.931580,394.290131 475.058716,404.200806 
	C475.082275,406.037109 475.886810,407.863373 476.691956,409.852661 
z"/>
<path fill="#2A6DB1" opacity="1.000000" stroke="none" 
	d="
M626.702881,369.920349 
	C622.404175,368.650238 617.968201,367.057526 613.244751,365.244812 
	C617.493347,366.549164 622.029419,368.073486 626.702881,369.920349 
z"/>
<path fill="#2A6DB1" opacity="1.000000" stroke="none" 
	d="
M681.943054,426.706970 
	C680.329285,423.952820 678.735352,420.799835 677.085327,417.285004 
	C678.673767,420.051514 680.318298,423.179810 681.943054,426.706970 
z"/>
<path fill="#2A6DB1" opacity="1.000000" stroke="none" 
	d="
M387.853638,368.354187 
	C385.961151,368.728485 383.900269,368.805115 381.411560,368.764832 
	C383.217560,368.450806 385.451416,368.253693 387.853638,368.354187 
z"/>
<path fill="#2A6DB1" opacity="1.000000" stroke="none" 
	d="
M467.866241,368.367859 
	C466.602936,368.729187 465.199707,368.806915 463.387939,368.768250 
	C464.561737,368.462677 466.144012,368.273499 467.866241,368.367859 
z"/>
<path fill="#2A6DB1" opacity="1.000000" stroke="none" 
	d="
M640.506348,377.182373 
	C638.823547,376.571960 637.029480,375.628326 635.041687,374.409790 
	C636.697021,375.039673 638.546082,375.944427 640.506348,377.182373 
z"/>
<path fill="#2A6DB1" opacity="1.000000" stroke="none" 
	d="
M520.934937,371.293579 
	C519.779541,372.213867 518.252625,373.106140 516.391907,374.049530 
	C517.559875,373.155609 519.061584,372.210571 520.934937,371.293579 
z"/>
<path fill="#2A6DB1" opacity="1.000000" stroke="none" 
	d="
M513.845947,375.158386 
	C513.135254,375.893311 512.058594,376.596497 510.661316,377.376495 
	C511.387085,376.677765 512.433533,375.902222 513.845947,375.158386 
z"/>
<path fill="#2A6DB1" opacity="1.000000" stroke="none" 
	d="
M510.029419,377.381287 
	C509.570496,378.042419 508.764069,378.662170 507.658203,379.369873 
	C508.133148,378.751831 508.907532,378.045868 510.029419,377.381287 
z"/>
<path fill="#2A6DB1" opacity="1.000000" stroke="none" 
	d="
M643.460327,379.175598 
	C642.640930,379.014801 641.773376,378.508972 640.742554,377.745819 
	C641.523560,377.935852 642.467896,378.383209 643.460327,379.175598 
z"/>
<path fill="#2A6DB1" opacity="1.000000" stroke="none" 
	d="
M504.761627,381.091675 
	C504.136475,381.828308 503.165527,382.591736 501.904114,383.471130 
	C502.547699,382.764221 503.481781,381.941345 504.761627,381.091675 
z"/>
<path fill="#2A6DB1" opacity="1.000000" stroke="none" 
	d="
M670.748901,406.231812 
	C670.062378,405.746948 669.385132,404.892853 668.611206,403.720612 
	C669.262390,404.222504 670.010254,405.042542 670.748901,406.231812 
z"/>
<path fill="#2A6DB1" opacity="1.000000" stroke="none" 
	d="
M479.096222,406.455200 
	C478.901184,407.319946 478.351990,408.277588 477.527039,409.423157 
	C477.748199,408.590057 478.245148,407.569092 479.096222,406.455200 
z"/>
<path fill="#2A6DB1" opacity="1.000000" stroke="none" 
	d="
M655.755127,388.918243 
	C655.022827,388.647064 654.253418,388.049683 653.328064,387.201111 
	C654.020752,387.497253 654.869446,388.044647 655.755127,388.918243 
z"/>
<path fill="#2A6DB1" opacity="1.000000" stroke="none" 
	d="
M675.785278,414.212524 
	C675.131226,413.668701 674.513672,412.738739 673.827148,411.479950 
	C674.446045,412.042908 675.133911,412.934692 675.785278,414.212524 
z"/>
<path fill="#2A6DB1" opacity="1.000000" stroke="none" 
	d="
M667.635498,402.010284 
	C667.073425,401.786896 666.512085,401.237732 665.895874,400.393494 
	C666.439392,400.627167 667.037781,401.155823 667.635498,402.010284 
z"/>
<path fill="#2A6DB1" opacity="1.000000" stroke="none" 
	d="
M482.964417,401.306824 
	C482.722290,402.063965 482.167480,402.930115 481.347076,403.960846 
	C481.604889,403.222198 482.128326,402.319000 482.964417,401.306824 
z"/>
<path fill="#2A6DB1" opacity="1.000000" stroke="none" 
	d="
M649.826599,383.899109 
	C649.235168,383.800354 648.575806,383.373962 647.766846,382.690613 
	C648.331116,382.812897 649.044861,383.192200 649.826599,383.899109 
z"/>
<path fill="#2A6DB1" opacity="1.000000" stroke="none" 
	d="
M499.054932,385.402771 
	C498.814117,385.945374 498.244141,386.476562 497.386688,387.079254 
	C497.641388,386.564301 498.183563,385.977814 499.054932,385.402771 
z"/>
<path fill="#2A6DB1" opacity="1.000000" stroke="none" 
	d="
M373.750061,372.590820 
	C373.390289,371.876740 373.155731,370.789001 372.909821,369.359985 
	C373.087433,369.017029 373.276398,369.015381 373.746490,369.045624 
	C373.976868,370.124054 373.926056,371.170593 373.750061,372.590820 
z"/>
<path fill="#2A6DB1" opacity="1.000000" stroke="none" 
	d="
M657.758362,390.920197 
	C657.186829,390.754120 656.570007,390.264771 655.855103,389.490387 
	C656.409119,389.669189 657.061096,390.133057 657.758362,390.920197 
z"/>
<path fill="#2A6DB1" opacity="1.000000" stroke="none" 
	d="
M662.648804,396.026642 
	C662.123840,395.802216 661.526672,395.272705 660.834595,394.452667 
	C661.351990,394.681946 661.964355,395.201752 662.648804,396.026642 
z"/>
<path fill="#2A6DB1" opacity="1.000000" stroke="none" 
	d="
M480.848389,404.185425 
	C480.722961,404.725952 480.318695,405.413849 479.651978,406.260712 
	C479.782867,405.724030 480.176208,405.028412 480.848389,404.185425 
z"/>
<path fill="#2A6DB1" opacity="1.000000" stroke="none" 
	d="
M523.747009,370.049133 
	C523.342285,370.476318 522.593811,370.894226 521.516113,371.354797 
	C521.925598,370.944946 522.664429,370.492401 523.747009,370.049133 
z"/>
<path fill="#2A6DB1" opacity="1.000000" stroke="none" 
	d="
M645.785828,380.890198 
	C645.240173,380.789642 644.552002,380.405029 643.692139,379.772095 
	C644.228088,379.884583 644.935669,380.245361 645.785828,380.890198 
z"/>
<path fill="#2A6DB1" opacity="1.000000" stroke="none" 
	d="
M507.112610,379.421204 
	C506.828339,379.930817 506.232483,380.477753 505.331299,381.065857 
	C505.617615,380.557526 506.209320,380.008026 507.112610,379.421204 
z"/>
<path fill="#2A6DB1" opacity="1.000000" stroke="none" 
	d="
M515.801819,374.106049 
	C515.639771,374.431793 515.172913,374.791016 514.406738,375.206299 
	C514.570557,374.888123 515.033752,374.513824 515.801819,374.106049 
z"/>
<path fill="#2A6DB1" opacity="1.000000" stroke="none" 
	d="
M633.518921,373.225037 
	C633.110779,373.311615 632.564758,373.113464 631.838196,372.685059 
	C632.232117,372.616669 632.806641,372.778503 633.518921,373.225037 
z"/>
<path fill="#2A6DB1" opacity="1.000000" stroke="none" 
	d="
M631.502808,372.175415 
	C631.049988,372.250580 630.404175,372.020020 629.526611,371.530701 
	C629.966492,371.471191 630.638123,371.670441 631.502808,372.175415 
z"/>
<path fill="#2A6DB1" opacity="1.000000" stroke="none" 
	d="
M665.839355,399.859558 
	C665.482849,399.765778 665.084167,399.367523 664.580322,398.702148 
	C664.915833,398.808380 665.356445,399.181702 665.839355,399.859558 
z"/>
<path fill="#2A6DB1" opacity="1.000000" stroke="none" 
	d="
M487.195984,396.487427 
	C487.167694,396.855194 486.854919,397.316071 486.302124,397.926178 
	C486.345215,397.577087 486.628357,397.078827 487.195984,396.487427 
z"/>
<path fill="#2A6DB1" opacity="1.000000" stroke="none" 
	d="
M628.810303,370.944031 
	C628.407104,371.031128 627.782104,370.890106 626.977234,370.478424 
	C627.394470,370.377136 627.991455,370.546539 628.810303,370.944031 
z"/>
<path fill="#2A6DB1" opacity="1.000000" stroke="none" 
	d="
M647.531372,382.169250 
	C647.131104,382.181702 646.622620,381.909241 645.977051,381.377197 
	C646.367737,381.373169 646.895508,381.628754 647.531372,382.169250 
z"/>
<path fill="#2A6DB1" opacity="1.000000" stroke="none" 
	d="
M496.861938,387.159973 
	C496.826141,387.510498 496.503632,387.911926 495.946472,388.438782 
	C495.999634,388.113098 496.287415,387.661987 496.861938,387.159973 
z"/>
<path fill="#2A6DB1" opacity="1.000000" stroke="none" 
	d="
M672.688477,409.336975 
	C672.489868,409.344055 672.196472,409.051392 671.815369,408.453583 
	C672.016357,408.444702 672.305054,408.740967 672.688477,409.336975 
z"/>
<path fill="#2A6DB1" opacity="1.000000" stroke="none" 
	d="
M501.268188,383.704926 
	C501.433624,383.954407 501.289490,384.173828 500.866455,384.407593 
	C500.635223,384.149658 500.758911,383.900665 501.268188,383.704926 
z"/>
<path fill="#84ACD7" opacity="1.000000" stroke="none" 
	d="
M693.537842,697.792542 
	C693.773315,697.962341 693.806030,698.137268 693.820312,698.577881 
	C693.625427,698.797058 693.448975,698.750427 693.052734,698.540527 
	C692.866028,698.067871 693.033386,697.874634 693.537842,697.792542 
z"/>
<path fill="#84ACD7" opacity="1.000000" stroke="none" 
	d="
M590.339722,698.774658 
	C590.027527,698.637756 590.029724,698.462585 590.101685,698.032959 
	C590.471619,697.796875 590.747253,697.888611 591.104980,698.244751 
	C591.025635,698.536011 590.839844,698.636169 590.339722,698.774658 
z"/>
<path fill="#2A6DB1" opacity="1.000000" stroke="none" 
	d="
M476.954773,698.679260 
	C476.948517,698.517822 477.207764,698.293884 477.696960,697.942383 
	C477.691315,698.082092 477.455780,698.349426 476.954773,698.679260 
z"/>
<path fill="#2A6DB1" opacity="1.000000" stroke="none" 
	d="
M374.179321,698.323547 
	C374.342499,698.156006 374.659393,698.236023 375.128754,698.565735 
	C374.952454,698.781372 374.636414,698.699890 374.179321,698.323547 
z"/>
<path fill="#2A6DB1" opacity="1.000000" stroke="none" 
	d="
M500.219482,384.687988 
	C500.338531,384.975769 500.123413,385.197754 499.588379,385.383423 
	C499.432953,385.080841 499.638580,384.839233 500.219482,384.687988 
z"/>
<path fill="#2A6EB4" opacity="1.000000" stroke="none" 
	d="
M208.246979,697.740479 
	C208.345474,697.578918 208.537689,697.606262 208.804108,697.858398 
	C208.698044,697.984009 208.518845,697.932678 208.246979,697.740479 
z"/>
<path fill="#2A6EB4" opacity="1.000000" stroke="none" 
	d="
M209.020752,368.351196 
	C209.119644,368.633087 208.909409,368.811737 208.393387,368.880920 
	C208.312424,368.615936 208.520447,368.441406 209.020752,368.351196 
z"/>
<path fill="#2A6DB1" opacity="1.000000" stroke="none" 
	d="
M634.736694,373.962463 
	C634.561829,374.073517 634.220215,373.977875 633.727661,373.656128 
	C633.907776,373.538635 634.238831,373.647186 634.736694,373.962463 
z"/>
<path fill="#2A6DB1" opacity="1.000000" stroke="none" 
	d="
M651.846069,385.848724 
	C651.669067,385.905640 651.340759,385.742767 650.913208,385.311035 
	C651.107666,385.237762 651.401184,385.433350 651.846069,385.848724 
z"/>
<path fill="#2A6DB1" opacity="1.000000" stroke="none" 
	d="
M495.236938,388.794098 
	C495.385834,389.059692 495.229950,389.263336 494.793945,389.448425 
	C494.582672,389.169678 494.722107,388.937103 495.236938,388.794098 
z"/>
<path fill="#2A6DB1" opacity="1.000000" stroke="none" 
	d="
M676.767578,416.241730 
	C676.561279,416.230042 676.263916,415.912323 675.939941,415.258301 
	C676.167786,415.259918 676.422180,415.597809 676.767578,416.241730 
z"/>
<path fill="#2A6DB1" opacity="1.000000" stroke="none" 
	d="
M494.262024,389.640442 
	C494.429047,389.898682 494.266418,390.141541 493.801117,390.406677 
	C493.579498,390.139069 493.724121,389.871094 494.262024,389.640442 
z"/>
<path fill="#2A6DB1" opacity="1.000000" stroke="none" 
	d="
M488.183716,395.463074 
	C488.254730,395.658356 488.080322,395.946259 487.669983,396.338165 
	C487.602142,396.146698 487.770233,395.851196 488.183716,395.463074 
z"/>
<path fill="#2A6DB1" opacity="1.000000" stroke="none" 
	d="
M671.723206,407.989960 
	C671.532288,408.001282 671.258545,407.760406 670.960571,407.235626 
	C671.171021,407.213715 671.405762,407.475739 671.723206,407.989960 
z"/>
<path fill="#2A6DB1" opacity="1.000000" stroke="none" 
	d="
M493.216919,390.622131 
	C493.330902,390.906891 493.104248,391.137054 492.548859,391.334961 
	C492.527374,391.144867 492.746094,390.899811 493.216919,390.622131 
z"/>
<path fill="#2A6DB1" opacity="1.000000" stroke="none" 
	d="
M492.132904,391.415405 
	C492.192352,391.613098 492.001862,391.906372 491.559174,392.292908 
	C491.498962,392.094421 491.690979,391.802704 492.132904,391.415405 
z"/>
<path fill="#2A6DB1" opacity="1.000000" stroke="none" 
	d="
M658.757935,392.016907 
	C658.571716,392.070251 658.255127,391.879181 657.828552,391.424377 
	C658.021545,391.364655 658.324646,391.568573 658.757935,392.016907 
z"/>
<path fill="#2A6DB1" opacity="1.000000" stroke="none" 
	d="
M668.502502,403.194702 
	C668.305847,403.238098 668.040955,403.029541 667.701782,402.574066 
	C667.896423,402.532349 668.165344,402.737549 668.502502,403.194702 
z"/>
<path fill="#2A6DB1" opacity="1.000000" stroke="none" 
	d="
M491.138306,392.408478 
	C491.205933,392.606079 491.026001,392.908722 490.594421,393.312256 
	C490.525421,393.113220 490.708099,392.813385 491.138306,392.408478 
z"/>
<path fill="#2A6DB1" opacity="1.000000" stroke="none" 
	d="
M490.160767,393.432098 
	C490.218262,393.633972 490.022461,393.926880 489.568970,394.304688 
	C489.510040,394.100769 489.708771,393.811951 490.160767,393.432098 
z"/>
<path fill="#2A6DB1" opacity="1.000000" stroke="none" 
	d="
M484.022644,400.299927 
	C484.075317,400.483002 483.894196,400.784271 483.458313,401.177368 
	C483.398621,400.985535 483.593719,400.701843 484.022644,400.299927 
z"/>
<path fill="#2A6DB1" opacity="1.000000" stroke="none" 
	d="
M484.979004,399.227020 
	C485.038300,399.408142 484.866028,399.723877 484.441742,400.148041 
	C484.375641,399.958191 484.561554,399.659912 484.979004,399.227020 
z"/>
<path fill="#2A6DB1" opacity="1.000000" stroke="none" 
	d="
M660.719971,394.017944 
	C660.527466,394.063110 660.217468,393.857666 659.819275,393.381714 
	C660.021545,393.329926 660.312012,393.548645 660.719971,394.017944 
z"/>
<path fill="#2A6DB1" opacity="1.000000" stroke="none" 
	d="
M485.863312,398.191742 
	C485.927002,398.368561 485.776642,398.690338 485.364624,399.108398 
	C485.285095,398.915375 485.467163,398.626068 485.863312,398.191742 
z"/>
<path fill="#2A6DB1" opacity="1.000000" stroke="none" 
	d="
M664.460938,398.218323 
	C664.256531,398.260162 663.998962,398.046783 663.677795,397.585327 
	C663.878723,397.545898 664.143188,397.754517 664.460938,398.218323 
z"/>
<path fill="#2A6DB1" opacity="1.000000" stroke="none" 
	d="
M663.572693,397.131531 
	C663.380737,397.178864 663.102539,396.979279 662.742920,396.528168 
	C662.936462,396.479279 663.211487,396.681946 663.572693,397.131531 
z"/>
<path fill="#2A6DB1" opacity="1.000000" stroke="none" 
	d="
M489.147888,394.413086 
	C489.219208,394.609436 489.045166,394.912628 488.624023,395.319733 
	C488.552124,395.122406 488.727325,394.821167 489.147888,394.413086 
z"/>
<path fill="#2A6DB1" opacity="1.000000" stroke="none" 
	d="
M373.749207,689.514526 
	C373.389923,688.173767 372.951538,686.381531 372.950928,684.589172 
	C372.917816,583.474304 372.919708,482.359467 372.934692,381.244629 
	C372.934906,379.756317 373.143066,378.267975 373.438721,376.416809 
	C373.728912,377.539917 373.926971,379.025818 373.927185,380.511749 
	C373.941956,482.530609 373.941010,584.549438 373.938354,686.568298 
	C373.938324,687.399841 373.896637,688.231445 373.749207,689.514526 
z"/>
</svg>